<svg xmlns="http://www.w3.org/2000/svg" xmlns:xlink="http://www.w3.org/1999/xlink" width="500" zoomAndPan="magnify" viewBox="0 0 375 374.999991" height="500" preserveAspectRatio="xMidYMid meet" version="1.0"><defs><g/><clipPath id="id1"><path d="M 69.957031 59.804688 L 307.707031 59.804688 L 307.707031 297.554688 L 69.957031 297.554688 Z M 69.957031 59.804688 " clip-rule="nonzero"/></clipPath></defs><g clip-path="url(#id1)"><path fill="#2b2b2b" d="M 273.195312 130.753906 L 284.671875 108.386719 L 298.683594 81.074219 L 274.3125 96.082031 C 257.746094 78.90625 235.863281 66.535156 210.621094 61.828125 C 146.101562 49.796875 84.019531 92.363281 71.988281 156.882812 C 64.226562 198.5 79.179688 239.105469 108.09375 265.917969 C 124.003906 280.671875 144.140625 291.246094 167.039062 295.515625 C 204.296875 302.464844 240.746094 291.207031 267.207031 268.027344 C 286.570312 251.066406 300.589844 227.726562 305.675781 200.464844 C 311.023438 171.777344 305.582031 143.570312 292.210938 120.03125 L 279.984375 145.394531 L 265.734375 174.957031 L 284.53125 162.53125 C 286.378906 173.472656 286.367188 184.921875 284.214844 196.460938 C 278.832031 225.324219 261.179688 248.800781 237.660156 262.515625 C 218.253906 273.828125 194.851562 278.496094 171.042969 274.054688 C 147.234375 269.617188 127.085938 256.828125 113.0625 239.277344 C 96.066406 218.007812 88.066406 189.746094 93.449219 160.882812 C 103.269531 108.214844 153.949219 73.46875 206.621094 83.289062 C 226.398438 86.980469 243.648438 96.425781 256.957031 109.578125 L 206.398438 207.328125 L 203.863281 116.96875 L 174.066406 122.484375 L 142.632812 195.789062 L 135.265625 129.667969 L 111.855469 134.003906 L 124.261719 241.367188 L 144.703125 245.179688 L 180.945312 168.039062 L 184.21875 252.550781 L 208.40625 257.058594 Z M 273.195312 130.753906 " fill-opacity="1" fill-rule="evenodd"/></g><g fill="#2b2b2b" fill-opacity="1"><g transform="translate(112.493574, 331.649978)"><g><path d="M 30.75 -16.796875 L 22.015625 0 L 15.9375 0 L 14.96875 -8.859375 L 10.375 0 L 4.296875 0 L 2.28125 -16.796875 L 7.875 -16.796875 L 8.953125 -7.21875 L 13.9375 -16.796875 L 19.15625 -16.796875 L 20.109375 -7.078125 L 25.171875 -16.796875 Z M 30.75 -16.796875 "/></g></g></g><g fill="#2b2b2b" fill-opacity="1"><g transform="translate(141.437626, 331.649978)"><g><path d="M 9.5 0.390625 C 7.789062 0.390625 6.289062 0.0703125 5 -0.5625 C 3.71875 -1.195312 2.726562 -2.082031 2.03125 -3.21875 C 1.332031 -4.351562 0.984375 -5.65625 0.984375 -7.125 C 0.984375 -9.082031 1.4375 -10.820312 2.34375 -12.34375 C 3.25 -13.875 4.503906 -15.0625 6.109375 -15.90625 C 7.710938 -16.757812 9.53125 -17.1875 11.5625 -17.1875 C 13.28125 -17.1875 14.78125 -16.867188 16.0625 -16.234375 C 17.351562 -15.597656 18.347656 -14.710938 19.046875 -13.578125 C 19.742188 -12.441406 20.09375 -11.140625 20.09375 -9.671875 C 20.09375 -7.722656 19.640625 -5.984375 18.734375 -4.453125 C 17.828125 -2.921875 16.566406 -1.726562 14.953125 -0.875 C 13.347656 -0.03125 11.53125 0.390625 9.5 0.390625 Z M 9.984375 -4.203125 C 10.878906 -4.203125 11.65625 -4.429688 12.3125 -4.890625 C 12.976562 -5.359375 13.488281 -5.984375 13.84375 -6.765625 C 14.195312 -7.546875 14.375 -8.40625 14.375 -9.34375 C 14.375 -10.332031 14.082031 -11.117188 13.5 -11.703125 C 12.914062 -12.296875 12.113281 -12.59375 11.09375 -12.59375 C 10.195312 -12.59375 9.414062 -12.359375 8.75 -11.890625 C 8.082031 -11.429688 7.570312 -10.8125 7.21875 -10.03125 C 6.875 -9.25 6.703125 -8.394531 6.703125 -7.46875 C 6.703125 -6.46875 6.992188 -5.671875 7.578125 -5.078125 C 8.160156 -4.492188 8.960938 -4.203125 9.984375 -4.203125 Z M 9.984375 -4.203125 "/></g></g></g><g fill="#2b2b2b" fill-opacity="1"><g transform="translate(161.789672, 331.649978)"><g><path d="M 9.5 0.390625 C 7.789062 0.390625 6.289062 0.0703125 5 -0.5625 C 3.71875 -1.195312 2.726562 -2.082031 2.03125 -3.21875 C 1.332031 -4.351562 0.984375 -5.65625 0.984375 -7.125 C 0.984375 -9.082031 1.4375 -10.820312 2.34375 -12.34375 C 3.25 -13.875 4.503906 -15.0625 6.109375 -15.90625 C 7.710938 -16.757812 9.53125 -17.1875 11.5625 -17.1875 C 13.28125 -17.1875 14.78125 -16.867188 16.0625 -16.234375 C 17.351562 -15.597656 18.347656 -14.710938 19.046875 -13.578125 C 19.742188 -12.441406 20.09375 -11.140625 20.09375 -9.671875 C 20.09375 -7.722656 19.640625 -5.984375 18.734375 -4.453125 C 17.828125 -2.921875 16.566406 -1.726562 14.953125 -0.875 C 13.347656 -0.03125 11.53125 0.390625 9.5 0.390625 Z M 9.984375 -4.203125 C 10.878906 -4.203125 11.65625 -4.429688 12.3125 -4.890625 C 12.976562 -5.359375 13.488281 -5.984375 13.84375 -6.765625 C 14.195312 -7.546875 14.375 -8.40625 14.375 -9.34375 C 14.375 -10.332031 14.082031 -11.117188 13.5 -11.703125 C 12.914062 -12.296875 12.113281 -12.59375 11.09375 -12.59375 C 10.195312 -12.59375 9.414062 -12.359375 8.75 -11.890625 C 8.082031 -11.429688 7.570312 -10.8125 7.21875 -10.03125 C 6.875 -9.25 6.703125 -8.394531 6.703125 -7.46875 C 6.703125 -6.46875 6.992188 -5.671875 7.578125 -5.078125 C 8.160156 -4.492188 8.960938 -4.203125 9.984375 -4.203125 Z M 9.984375 -4.203125 "/></g></g></g><g fill="#2b2b2b" fill-opacity="1"><g transform="translate(182.141718, 331.649978)"><g><path d="M 3.40625 -16.796875 L 10.984375 -16.796875 C 12.742188 -16.796875 14.269531 -16.507812 15.5625 -15.9375 C 16.851562 -15.363281 17.84375 -14.539062 18.53125 -13.46875 C 19.21875 -12.394531 19.5625 -11.128906 19.5625 -9.671875 C 19.5625 -7.734375 19.113281 -6.03125 18.21875 -4.5625 C 17.320312 -3.101562 16.078125 -1.976562 14.484375 -1.1875 C 12.890625 -0.394531 11.078125 0 9.046875 0 L 0.046875 0 Z M 9.234375 -4.421875 C 10.691406 -4.421875 11.820312 -4.878906 12.625 -5.796875 C 13.4375 -6.710938 13.84375 -7.894531 13.84375 -9.34375 C 13.84375 -10.3125 13.539062 -11.0625 12.9375 -11.59375 C 12.34375 -12.125 11.476562 -12.390625 10.34375 -12.390625 L 8.1875 -12.390625 L 6.59375 -4.421875 Z M 9.234375 -4.421875 "/></g></g></g><g fill="#2b2b2b" fill-opacity="1"><g transform="translate(201.965756, 331.649978)"><g><path d="M 23.515625 -16.796875 L 20.203125 0 L 15.046875 0 L 16.53125 -7.65625 L 11.8125 -1.515625 L 9.3125 -1.515625 L 6.71875 -7.5625 L 5.203125 0 L 0.046875 0 L 3.40625 -16.796875 L 8.015625 -16.796875 L 11.65625 -7.875 L 18.703125 -16.796875 Z M 23.515625 -16.796875 "/></g></g></g><g fill="#2b2b2b" fill-opacity="1"><g transform="translate(224.8618, 331.649978)"><g><path d="M 12.28125 -2.921875 L 5.875 -2.921875 L 4.203125 0 L -1.78125 0 L 8.921875 -16.796875 L 14.5 -16.796875 L 18.484375 0 L 12.84375 0 Z M 11.5 -7.015625 L 10.6875 -11.296875 L 8.203125 -7.015625 Z M 11.5 -7.015625 "/></g></g></g><g fill="#2b2b2b" fill-opacity="1"><g transform="translate(244.205839, 331.649978)"><g><path d="M 12.578125 -8.359375 L 17.09375 0 L 10.96875 0 L 8.875 -4.3125 L 5.234375 0 L -1.53125 0 L 6.390625 -8.6875 L 2.140625 -16.796875 L 8.1875 -16.796875 L 10.25 -12.59375 L 13.84375 -16.796875 L 20.234375 -16.796875 Z M 12.578125 -8.359375 "/></g></g></g></svg>